<svg height="511pt" viewBox="0 -33 511.99964 511" width="511pt" xmlns="http://www.w3.org/2000/svg"><path d="m134.609375 40.511719c1.699219 1.226562 3.789063 1.917969 5.878906 1.917969 1 0 1.992188-.160157 2.949219-.449219 2.550781-.789063 4.652344-2.519531 5.890625-4.878907 1.25-2.355468 1.511719-5.0625.722656-7.609374-.640625-2.089844-1.910156-3.859376-3.671875-5.136719-2.507812-1.828125-5.847656-2.386719-8.828125-1.46875-2.550781.777343-4.652343 2.515625-5.890625 4.875-1.25 2.359375-1.511718 5.054687-.722656 7.613281.640625 2.078125 1.910156 3.855469 3.671875 5.136719zm0 0"/><path d="m97.378906 109.761719c-1.871094 1.859375-2.929687 4.433593-2.929687 7.0625 0 2.625 1.058593 5.203125 2.929687 7.0625 1.859375 1.867187 4.429688 2.925781 7.070313 2.925781 2.628906 0 5.210937-1.058594 7.070312-2.925781 1.859375-1.859375 2.929688-4.4375 2.929688-7.0625 0-2.628907-1.070313-5.207031-2.929688-7.0625-1.859375-1.859375-4.441406-2.929688-7.070312-2.929688-2.628907 0-5.210938 1.070313-7.070313 2.929688zm0 0"/><path d="m164.039062 155.472656c5.691407 3.25 14.808594 6.640625 24.277344 6.640625 7.433594 0 15.082032-2.089843 21.464844-7.972656 9.511719-8.773437 15.570312-21.910156 15.820312-34.289063.183594-9.199218-2.847656-17.394531-8.53125-23.074218-13.175781-13.160156-33.0625-2.035156-42.738281 6.613281-4.117187 3.679687-4.46875 9.992187-.785156 14.105469 3.679687 4.113281 10.003906 4.464844 14.121094.78125 5.65625-5.054688 13.921875-8.707032 15.257812-7.371094 2.429688 2.425781 2.722657 6.394531 2.679688 8.546875-.140625 7.023437-3.828125 14.875-9.390625 20.003906-7.292969 6.726563-22.144532-1.273437-22.253906-1.335937-4.796876-2.734375-10.90625-1.070313-13.644532 3.71875-2.738281 4.792968-1.074218 10.894531 3.722656 13.632812zm0 0"/><path d="m511.109375 271.21875c-2.171875-4.792969-3.273437-11.363281-3.273437-19.523438 0-7.035156.460937-13.445312.90625-19.640624 1.066406-14.800782 1.984374-27.582032-4.191407-40-5.96875-12.003907-17.613281-21.4375-37.394531-30.179688-6.945312-41.398438-42.285156-73.3125-85.269531-74.949219 0 0-97.148438-74.160156-97.183594-74.1875-5.664063-4.390625-12.613281-7.636719-20.683594-9.660156-6.910156-1.730469-14.441406-2.566406-23.019531-2.578125-12.820312.011719-27.238281 1.929688-42.859375 5.695312-5.339844 1.296876-11.019531 2.726563-16.871094 4.265626-2.589843.667968-4.75 2.316406-6.097656 4.613281-1.351563 2.308593-1.722656 4.996093-1.042969 7.582031 1.152344 4.386719 5.132813 7.453125 9.671875 7.453125.847657 0 1.710938-.109375 2.539063-.328125 5.660156-1.476562 11.210937-2.878906 16.511718-4.167969 9.628907-2.335937 24.046876-5.132812 38.046876-5.132812h.132812c6.820312 0 12.917969.667969 18.128906 1.96875 5.429688 1.367187 9.941406 3.4375 13.410156 6.164062.007813.003907 14.675782 11.203125 32.757813 25.007813l15.808594 94.816406c.640625 3.835938 3.449219 6.953125 7.199219 7.988281 3.753906 1.035157 7.765624-.195312 10.285156-3.15625l6.015625-7.074219 11.007812 29.109376c1.257813 3.324218 4.1875 5.730468 7.695313 6.320312 3.511718.585938 7.066406-.726562 9.34375-3.457031l10.378906-12.441407 19.066406 36.628907c1.78125 3.421875 5.269532 5.382812 8.878906 5.382812 1.554688 0 3.132813-.363281 4.605469-1.128906 4.898438-2.542969 6.804688-8.578125 4.257813-13.472656l-26-49.949219c-1.542969-2.964844-4.472656-4.964844-7.796875-5.324219-3.335938-.359375-6.613281.96875-8.757813 3.539063l-9.023437 10.816406-10.9375-28.933594c-1.25-3.304687-4.160157-5.707031-7.648438-6.3125-3.484375-.601562-7.035156.679688-9.328125 3.375l-3.050781 3.589844-8.769531-52.578125c22.753906 17.371094 43.785156 33.425781 43.785156 33.425781 1.742188 1.332032 3.875 2.054688 6.070312 2.054688 38.597657 0 70 31.367187 70 69.929687v99.898438c0 11.253906 8.226563 66.394531 9.910157 77.570312l-8.769531 72.28125h-38.332032l6.894532-27.546875c.570312-2.273437.320312-4.675781-.703126-6.78125l-30-61.800781c-1.464843-3.023437-4.355468-5.105469-7.6875-5.546875-43.484374-5.742188-66.488281-18.726562-66.6875-18.84375-2.71875-1.582031-6.023437-1.796875-8.921874-.578125-2.898438 1.222656-5.054688 3.734375-5.816407 6.785156l-8 31.96875c-.09375.378907-.167969.761719-.21875 1.148438l-10.460937 81.195312h-38.398438l6.894532-27.546875c.195312-.792968.296874-1.605468.296874-2.421875l.003907-70.675781c0-1.09375-2.425781-51.597656-2.425781-51.597656-.21875-5.511719-4.871094-9.789063-10.386719-9.589844-5.519531.214844-9.816407 4.859375-9.601563 10.375l1.125 28.632812-41.523437-34.054687c-2.617188-3.328125-12.386719-15.726563-22.28125-27.988281 4.996093-9.699219 9.867187-20.410156 14.609375-32.09375 8.941406 4.804687 20.414062 10.164062 31.066406 10.164062 29.605469 0 48-21.4375 48-55.945312 0-10.785156 4.121094-21.652344 8.488281-33.160156 4.675781-12.328126 9.511719-25.070313 9.511719-38.765626 0-12.617187-5.457031-41.957031-56-41.957031-32.957031 0-51.238281 13.414063-52 13.984375-4.417969 3.308594-5.351562 9.597656-2.035156 14.011719 3.3125 4.414063 9.542968 5.335937 13.960937 2.023437.140625-.097656 14.21875-10.042968 40.074219-10.042968 36 0 36 16.542968 36 21.980468 0 10.035157-3.992188 20.550782-8.214844 31.683594-4.8125 12.683594-9.785156 25.796875-9.785156 40.242188 0 16.40625-4.859375 35.964844-28 35.964844-5.546875 0-13.25-3.429688-19.769531-6.824219-2.535157-1.316407-11.265625-7.011719-12.882813-7.585938l-45-15.980469c-2.667968-.949218-5.617187-.722656-8.109375.625-2.492187 1.347657-4.296875 3.691407-4.960937 6.445313-6.945313 28.769531-16.441406 49.777344-28.230469 62.433594-8.390625 9.011719-17.648437 13.542969-28.25 13.863281-1.546875-22.609375-3.390625-52.832031-5.582031-93.214844-.449219-8.324218-.492188-9.039062-.546875-9.554687-4.179688-39.972657 21.457031-81.414063 47.082031-93.605469 4.984375-2.375 7.101562-8.335938 4.726562-13.316406-2.375-4.980469-8.34375-7.09375-13.328124-4.722656-16.519532 7.859374-32.363282 24.003906-43.464844 44.292968-11.976563 21.882813-17.273438 46.488282-14.921875 69.292969.050781.742187.242187 4.269531.484375 8.691406 2.019531 37.253907 3.746094 65.964844 5.230468 88.144531-14.085937-5.625-24.488281-15.179687-24.625-15.304687-3.546874-3.332031-8.980468-3.628906-12.871093-.699219-3.886719 2.929688-5.097657 8.230469-2.867188 12.554688.976563 1.894531 17.683594 33.761718 44.164063 52.46875 1.648437 17.21875 2.847656 23.523437 3.8125 26.382812 7.433594 22.0625 23.808594 40.121094 43.804687 48.308594.042969.019531.089844.039062.136719.054688 7.507812 2.949218 16.039062 2.75 23.398438-.546876 7.296874-3.269531 12.824218-9.160156 15.566406-16.585937 7.109375-19.257813-5.855469-32.550781-14.617188-37.507813-4.296875-3.757812-7.296875-8.300781-8.550781-12.851562 8.722656-4.3125 17.183594-10.875 25.320313-19.6875 6.335937-6.863281 12.542968-15.1875 18.597656-24.921875 5.808594 7.242187 11.933594 14.96875 17.796875 22.4375.449219.574219.960937 1.097656 1.527343 1.5625l20.835938 17.085937-13.160156 92.054688-19.277344 38.507812c-1.546875 3.097657-1.382812 6.777344.441406 9.722657 1.820313 2.941406 5.039063 4.734375 8.503906 4.734375h119c5.027344 0 9.273438-3.730469 9.917969-8.714844l11.507813-89.328125 4.910156-19.621094c6.746094 2.785157 16.367188 6.222657 28.761719 9.394531l4.796875 57.503907-9.597656 38.351562c-.746094 2.988281-.074219 6.148438 1.820312 8.574219 1.894531 2.421875 4.800781 3.839844 7.882812 3.839844h110c5.054688 0 9.316407-3.769532 9.925782-8.785156l10-82.417969c.109375-.898438.09375-1.804688-.039063-2.699219-3.824219-25.234375-9.886719-68.160156-9.886719-75.925781v-92.027344c22.765626 12.203125 21.996094 23.492187 20.378907 45.980469-.449219 6.242187-.957031 13.320312-.957031 21.070312 0 11.175782 1.652343 20.257813 5.046874 27.761719 1.671876 3.691406 5.3125 5.875 9.117188 5.875 1.378906 0 2.78125-.289063 4.117188-.890625 5.035156-2.273438 7.265624-8.191406 4.992187-13.21875zm-397.878906 77.230469c-.863281 2.34375-2.632813 4.214843-4.984375 5.265625-2.464844 1.105468-5.316406 1.179687-7.839844.207031-14.667969-6.03125-26.761719-19.546875-32.359375-36.15625-.378906-1.160156-.886719-3.808594-1.554687-9.25 5.402343 1.679687 11.058593 2.640625 16.9375 2.640625 2.089843 0 4.171874-.132812 6.238281-.371094 2.433593 8.480469 7.746093 16.414063 15.367187 22.808594.640625.570312 1.359375 1.066406 2.160156 1.46875 2.769532 1.433594 8.90625 5.617188 6.035157 13.386719zm-29.800781-57.273438c-14.265626 0-27.949219-9.265625-39.183594-20.570312 5.195312 1.320312 10.683594 2.125 16.347656 2.125 16.738281 0 31.574219-6.816407 44.09375-20.257813 12.539062-13.460937 22.6875-33.832031 30.238281-60.644531l25.019531 8.886719c-23.792968 59.238281-50.15625 90.460937-76.515624 90.460937zm144.984374 104.144531-7.808593 31.199219h-35.011719l12.765625-25.503906c.480469-.957031.800781-1.988281.953125-3.054687l11.675781-81.652344 17.429688 14.289062zm162.191407 31.199219h-29.382813l6.894532-27.546875c.265624-1.0625.351562-2.160156.261718-3.253906l-4.429687-53.101562c2.527343.445312 5.109375.878906 7.792969 1.28125l26.089843 53.746093zm0 0"/><path d="m262.183594 243.945312c5.105468 2.101563 10.953125-.324218 13.058594-5.425781l15.285156-37 13.898437 46.0625c1.140625 3.785157 4.410157 6.542969 8.335938 7.03125 3.929687.480469 7.777343-1.382812 9.8125-4.773437l10.988281-18.292969 18.261719 42.101563c1.472656 3.394531 4.703125 5.699218 8.398437 5.988281 3.695313.289062 7.242188-1.488281 9.226563-4.617188l9.695312-15.296875 30.980469 59.515625c1.785156 3.421875 5.269531 5.382813 8.882812 5.382813 1.550782 0 3.128907-.363282 4.605469-1.128906 4.898438-2.542969 6.804688-8.578126 4.257813-13.472657l-39-74.921875c-1.652344-3.175781-4.875-5.222656-8.449219-5.375-3.582031-.140625-6.957031 1.617188-8.871094 4.636719l-8.890625 14.019531-18.488281-42.617187c-1.488281-3.4375-4.777344-5.75-8.515625-5.996094-3.75-.25-7.304688 1.617187-9.234375 4.828125l-9.371094 15.605469-15.476562-51.308594c-1.222657-4.046875-4.859375-6.890625-9.082031-7.097656-4.21875-.183594-8.125 2.261719-9.738282 6.167969l-26 62.9375c-2.105468 5.101562.324219 10.941406 5.429688 13.046874zm0 0"/></svg>